# xmcd CD database file
#
# Track frame offsets:
#	182
#	18570
#	34842
#	53082
#	72045
#	89702
#	105665
#	121805
#	138487
#	155782
#
# Disc length: 2336 seconds
#
# Revision: 3
# Processed by: cddbd v1.5.2PL0 Copyright (c) Steve Scherf et al.
# Submitted via: CDex 1.70beta2
#
DISCID=88091e0a
DTITLE=Juan Carlos Alvarado - Tu palabra
DYEAR=1900
DGENRE=
TTITLE0=001 - Tu palabra
TTITLE1=002 - No te afanes
TTITLE2=003 - Quien nos separara?
TTITLE3=004 - Dios mio
TTITLE4=005 - Padre nuestro
TTITLE5=006 - Bendice alma mia
TTITLE6=007 - Dame de beber
TTITLE7=008 - Conozco que todo lo puedes
TTITLE8=009 - El Senor es mi Pastor
TTITLE9=010 - Muestrame tus caminos
EXTD=
EXTT0=
EXTT1=
EXTT2=
EXTT3=
EXTT4=
EXTT5=
EXTT6=
EXTT7=
EXTT8=
EXTT9=
PLAYORDER=
